<?xml version="1.0" standalone="no"?><!DOCTYPE svg PUBLIC "-//W3C//DTD SVG 1.1//EN" "http://www.w3.org/Graphics/SVG/1.1/DTD/svg11.dtd"><svg t="1637669949605" class="icon" viewBox="0 0 1024 1024" version="1.1" xmlns="http://www.w3.org/2000/svg" p-id="13046" xmlns:xlink="http://www.w3.org/1999/xlink" width="200" height="200"><defs><style type="text/css"></style></defs><path d="M682.666667 245.333333a10.666667 10.666667 0 0 0 10.666666 10.666667h189.913334c-0.913333-1.066667-1.86-2.12-2.866667-3.126667L685.793333 58.286667c-1.006667-1.006667-2.06-1.953333-3.126666-2.866667z" fill="#5C5C66" p-id="13047"></path><path d="M640 245.333333V42.666667H181.333333a53.393333 53.393333 0 0 0-53.333333 53.333333v832a53.393333 53.393333 0 0 0 53.333333 53.333333h661.333334a53.393333 53.393333 0 0 0 53.333333-53.333333V298.666667h-202.666667a53.393333 53.393333 0 0 1-53.333333-53.333334z m-320 10.666667h170.666667a21.333333 21.333333 0 0 1 0 42.666667H320a21.333333 21.333333 0 0 1 0-42.666667z m384 512H320a21.333333 21.333333 0 0 1 0-42.666667h384a21.333333 21.333333 0 0 1 0 42.666667z m21.333333-234.666667a21.333333 21.333333 0 0 1-21.333333 21.333334H320a21.333333 21.333333 0 0 1 0-42.666667h384a21.333333 21.333333 0 0 1 21.333333 21.333333z" fill="#5C5C66" p-id="13048"></path></svg>