<?xml version="1.0" standalone="no"?><!DOCTYPE svg PUBLIC "-//W3C//DTD SVG 1.1//EN" "http://www.w3.org/Graphics/SVG/1.1/DTD/svg11.dtd"><svg t="1637731878526" class="icon" viewBox="0 0 1024 1024" version="1.1" xmlns="http://www.w3.org/2000/svg" p-id="5461" xmlns:xlink="http://www.w3.org/1999/xlink" width="200" height="200"><defs><style type="text/css"></style></defs><path d="M282.286667 583.54a53.4 53.4 0 0 1 75.426666 0L447.333333 673.166667l218.286667-218.293334a53.333333 53.333333 0 0 1 75.426667 0L938.666667 652.5V138.666667a53.393333 53.393333 0 0 0-53.333334-53.333334H138.666667a53.393333 53.393333 0 0 0-53.333334 53.333334v641.833333zM320 213.333333c58.813333 0 106.666667 47.853333 106.666667 106.666667s-47.853333 106.666667-106.666667 106.666667-106.666667-47.853333-106.666667-106.666667 47.853333-106.666667 106.666667-106.666667z m-64 106.666667a64 64 0 1 1 64 64 64.073333 64.073333 0 0 1-64-64z m682.666667 392.833333V885.333333a53.393333 53.393333 0 0 1-53.333334 53.333334H242.166667l453.626666-453.62a10.666667 10.666667 0 0 1 15.08 0zM181.833333 938.666667H138.666667a53.393333 53.393333 0 0 1-53.333334-53.333334v-44.5l227.126667-227.12a10.666667 10.666667 0 0 1 15.08 0L417.166667 703.333333z" fill="#5C5C66" p-id="5462"></path></svg>